<svg width="62" height="58" viewBox="0 0 62 58" fill="none" xmlns="http://www.w3.org/2000/svg">
<path d="M22.1429 8.85714H13.2857V0H8.85714V8.85714H0V13.2857H8.85714V22.1429H13.2857V13.2857H22.1429V8.85714Z" fill="black"/>
<path d="M61.8206 32.3419L55.1778 16.8419C55.0073 16.4435 54.7236 16.1039 54.3618 15.8654C54.0001 15.6268 53.5762 15.4998 53.1429 15.5H46.5V11.0715C46.5 10.4842 46.2667 9.92099 45.8515 9.50573C45.4362 9.09047 44.873 8.85718 44.2857 8.85718H28.7857V13.2857H42.0714V41.0883C41.0624 41.6742 40.1794 42.454 39.4733 43.3829C38.7672 44.3117 38.252 45.3711 37.9573 46.5H24.0427C23.561 44.5997 22.4594 42.9141 20.9122 41.7102C19.365 40.5062 17.4605 39.8525 15.5 39.8525C13.5395 39.8525 11.635 40.5062 10.0878 41.7102C8.54056 42.9141 7.43897 44.5997 6.95729 46.5H4.42857V26.5715H0V48.7143C0 49.3016 0.23329 49.8648 0.648549 50.2801C1.06381 50.6953 1.62702 50.9286 2.21429 50.9286H6.95729C7.43897 52.829 8.54056 54.5145 10.0878 55.7185C11.635 56.9225 13.5395 57.5762 15.5 57.5762C17.4605 57.5762 19.365 56.9225 20.9122 55.7185C22.4594 54.5145 23.561 52.829 24.0427 50.9286H37.9573C38.439 52.829 39.5406 54.5145 41.0878 55.7185C42.635 56.9225 44.5395 57.5762 46.5 57.5762C48.4605 57.5762 50.365 56.9225 51.9122 55.7185C53.4594 54.5145 54.561 52.829 55.0427 50.9286H59.7857C60.373 50.9286 60.9362 50.6953 61.3514 50.2801C61.7667 49.8648 62 49.3016 62 48.7143V33.2143C62.0001 32.9143 61.9391 32.6175 61.8206 32.3419ZM15.5 53.1429C14.6241 53.1429 13.7679 52.8832 13.0396 52.3965C12.3113 51.9099 11.7437 51.2183 11.4085 50.4091C11.0733 49.5998 10.9856 48.7094 11.1565 47.8503C11.3274 46.9913 11.7492 46.2022 12.3685 45.5828C12.9879 44.9635 13.777 44.5417 14.636 44.3708C15.4951 44.2 16.3855 44.2877 17.1947 44.6229C18.004 44.958 18.6956 45.5257 19.1822 46.2539C19.6688 46.9822 19.9286 47.8384 19.9286 48.7143C19.9268 49.8883 19.4597 51.0137 18.6295 51.8439C17.7994 52.674 16.674 53.1411 15.5 53.1429ZM46.5 19.9286H51.6814L56.4289 31H46.5V19.9286ZM46.5 53.1429C45.6241 53.1429 44.7679 52.8832 44.0396 52.3965C43.3113 51.9099 42.7437 51.2183 42.4085 50.4091C42.0733 49.5998 41.9856 48.7094 42.1565 47.8503C42.3274 46.9913 42.7492 46.2022 43.3685 45.5828C43.9879 44.9635 44.777 44.5417 45.636 44.3708C46.4951 44.2 47.3855 44.2877 48.1947 44.6229C49.004 44.958 49.6956 45.5257 50.1822 46.2539C50.6688 46.9822 50.9286 47.8384 50.9286 48.7143C50.9274 49.8885 50.4604 51.0142 49.6302 51.8445C48.7999 52.6748 47.6742 53.1417 46.5 53.1429ZM57.5714 46.5H55.0427C54.555 44.6033 53.4516 42.9221 51.9056 41.72C50.3596 40.5178 48.4584 39.8626 46.5 39.8572V35.4286H57.5714V46.5Z" fill="black"/>
</svg>
