<svg width="58" height="58" viewBox="0 0 58 58" fill="none" xmlns="http://www.w3.org/2000/svg">
<path d="M29 0C13.0094 0 0 13.0094 0 29C0 44.9906 13.0094 58 29 58C44.9906 58 58 44.9906 58 29C58 13.0094 44.9906 0 29 0ZM29 52.2C16.2081 52.2 5.8 41.7919 5.8 29C5.8 16.2081 16.2081 5.8 29 5.8C41.7919 5.8 52.2 16.2081 52.2 29C52.2 41.7919 41.7919 52.2 29 52.2Z" fill="black"/>
<path d="M28.9999 26.0999C23.1999 26.0999 23.1999 24.2845 23.1999 23.1999C23.1999 21.7963 25.2328 20.2999 28.9999 20.2999C32.4364 20.2999 33.0193 22.1501 33.0599 23.2521L35.9599 23.1999H38.8599C38.8599 20.2245 36.9285 16.0398 31.8999 14.8508V11.6347H26.0999V14.7464C20.384 15.7063 17.3999 19.4647 17.3999 23.1999C17.3999 26.4479 18.9079 31.8999 28.9999 31.8999C34.7999 31.8999 34.7999 33.8603 34.7999 34.7999C34.7999 36.0034 33.0019 37.6999 28.9999 37.6999C23.661 37.6999 23.2318 35.2146 23.1999 34.7999H17.3999C17.3999 37.4621 19.3168 42.2036 26.0999 43.2679V46.3999H31.8999V43.2534C37.6158 42.2935 40.5999 38.5351 40.5999 34.7999C40.5999 31.5519 39.0919 26.0999 28.9999 26.0999Z" fill="black"/>
</svg>
