<svg width="68" height="61" viewBox="0 0 68 61" fill="none" xmlns="http://www.w3.org/2000/svg">
<path d="M2 60V18.7509C2 18.369 2.21752 18.0204 2.56058 17.8526L34.7404 2.11081C34.8829 2.04112 35.0499 2.04315 35.1907 2.11628L65.4611 17.8468C65.7922 18.0189 66 18.361 66 18.7341V60M40.2158 41.4211V58.9626M40.2158 41.4211H45.2806M40.2158 41.4211H35.2432M40.2158 41.4211V24.8797C40.2158 24.3274 40.6635 23.8797 41.2158 23.8797H45.2806M40.2158 41.4211H58.1727M40.2158 58.9626H57.1727C57.7249 58.9626 58.1727 58.5149 58.1727 57.9626V41.4211M40.2158 58.9626H23.259C22.7067 58.9626 22.259 58.5149 22.259 57.9626V42.4211C22.259 41.8689 22.7067 41.4211 23.259 41.4211H27.3237M58.1727 41.4211H53.2M58.1727 41.4211V24.8797C58.1727 24.3274 57.7249 23.8797 57.1727 23.8797H53.2M45.2806 41.4211V45.8911C45.2806 46.4433 45.7283 46.8911 46.2806 46.8911H52.2376C52.7932 46.8911 53.2422 46.4382 53.2376 45.8826L53.2 41.4211M45.2806 41.4211H53.2M27.3237 41.4211V45.8911C27.3237 46.4433 27.7715 46.8911 28.3237 46.8911H34.2808C34.8363 46.8911 35.2854 46.4382 35.2807 45.8826L35.2432 41.4211M27.3237 41.4211H35.2432M45.2806 23.8797V28.3496C45.2806 28.9019 45.7283 29.3496 46.2806 29.3496H52.2376C52.7932 29.3496 53.2422 28.8967 53.2376 28.3412L53.2 23.8797M45.2806 23.8797H53.2" stroke="black" stroke-width="3.8"/>
</svg>
